# xmcd CD database file
#
# Track frame offsets:
#	150
#	10770
#	24312
#	36487
#	50432
#	63145
#	79415
#	90967
#	112650
#	125432
#	139605
#	158077
#	171900
#	185950
#
# Disc length: 2620 seconds
#
# Revision: 0
# Processed by: cddbd v1.5.1PL0 Copyright (c) Steve Scherf et al.
# Submitted via: CDex 1.51
#
DISCID=ac0a3a0e
DTITLE=diverse - Jazz It Up
DYEAR=1900
DGENRE=Jazz
TTITLE0=Irving Berlin - Top Hat, White Tie And Tails
TTITLE1=Irving Berlin - I'M Putting All My Eggs In One Basket
TTITLE2=F. Astaire and J. Mercer - I'M Building UpTo An Awful Letdown
TTITLE3=Irving Berlin - Puttin' On The Ritz
TTITLE4=Arthur Schwartz and Howard Dietz - A Shine On Your Shoes
TTITLE5=Irving Berlin - Change Partners
TTITLE6=George Gershwin and Ira Gershwin - Shall We Dance
TTITLE7=V. Young and E. Heyman - Love Letter
TTITLE8=V. Young and N. Washington - Love Me
TTITLE9=V. Young and N. Washington and J. Young - A Hundred Years From Today
TTITLE10=V. Young and J. Livingston - Golden Earrings
TTITLE11=V. Young and B. Cosby and N. Washington - Love Me Tonight
TTITLE12=V. Young and L.Wiley - Got The South In My Soul
TTITLE13=V. Young and H. Adamson - Around The World
EXTD=
EXTT0=
EXTT1=
EXTT2=
EXTT3=
EXTT4=
EXTT5=
EXTT6=
EXTT7=
EXTT8=
EXTT9=
EXTT10=
EXTT11=
EXTT12=
EXTT13=
PLAYORDER=
